<svg width="300" height="120" viewBox="0 0 300 120" xmlns="http://www.w3.org/2000/svg">
  <!-- Leaf icon -->
  <g transform="translate(10, 10)">
    <!-- Main green leaf -->
    <path d="M20 50 C10 20, 40 5, 60 20 C70 15, 80 30, 75 50 C80 65, 60 70, 40 65 C25 70, 15 60, 20 50 Z" fill="#2E7D32"/>
    <!-- Yellow/lime overlay leaf -->
    <path d="M25 45 C20 25, 40 15, 55 25 C60 20, 65 35, 62 45 C65 55, 50 60, 38 57 C28 60, 22 52, 25 45 Z" fill="#8BC34A"/>
  </g>

  <!-- Main text "Produce" -->
  <text x="90" y="40" font-family="Arial, sans-serif" font-size="42" font-weight="bold" fill="#1B5E20">Produce</text>

  <!-- Dot after Produce -->
  <circle cx="280" cy="35" r="3" fill="#1B5E20"/>

  <!-- "Services" text -->
  <text x="90" y="80" font-family="Arial, sans-serif" font-size="42" font-weight="bold" fill="#1B5E20">Services</text>

  <!-- "Europe" text -->
  <text x="90" y="110" font-family="Arial, sans-serif" font-size="32" font-weight="normal" fill="#4CAF50">Europe</text>
</svg>